<svg xmlns="http://www.w3.org/2000/svg" viewBox="0 0 242.72 287.65">
    <defs>
        <style>.cls-1{fill:#29439b;isolation:isolate;}.cls-2{fill:#0f2533;}</style>
    </defs>
    <g id="Layer_2" data-name="Layer 2">
        <g id="Layer_1-2" data-name="Layer 1">
            <rect class="cls-1" x="106.91" y="192.54" width="28.88" height="68.92"/>
            <path class="cls-2" d="M109.82,55.25,91.64,25.54A55.74,55.74,0,0,0,72.29,47.19L109.64,75.7l.18-20.45Z"/>
            <path class="cls-2"
                  d="M69.88,52.74l39.94,30.14v43.37a54.59,54.59,0,0,1-10-3.27V87.87L67.13,63.23,10,20.15V90.53L60.48,128.6h0l24.1,18.21,25.21,19V287.65L0,204.77v-79l10,7.56v66.39L99.78,267.5V170.83L84.69,159.46h0L70,148.36l-7-5.27L48.3,132,0,95.53V0L69.88,52.74Z"/>
            <path class="cls-2"
                  d="M142.94,170.83V267.5l89.74-67.73V133.38l10-7.56v79L132.9,287.65V165.83l25.21-19,24.08-18.21h0l50.45-38.07V20.15l-56.05,42.3L142.94,87.87v35.6a54.46,54.46,0,0,1-10,3V82.88l40.85-30.82L242.72,0V95.53L194.42,132l-14.71,11.11-7,5.27L158,159.45h0l-15.09,11.38Z"/>
            <path class="cls-1"
                  d="M187.59,144.5l11.67-8.8c26.23,26-21.27,61.7-39,29.42l11.67-8.81a10.43,10.43,0,0,0,10,7.42c10.2.36,14.27-14.13,5.65-19.23Z"/>
            <path class="cls-1"
                  d="M55.13,144.5l-11.66-8.8c-26.25,26,21.29,61.69,39,29.42l-11.66-8.8c-6.25,17.83-31.1-.91-15.66-11.81Z"/>
            <path class="cls-1" d="M66.43,72.05A55.53,55.53,0,0,0,93.9,120V90.8L66.46,70.09c0,.65,0,1.3,0,2Z"/>
            <path class="cls-2" d="M132.89,55.25l18.18-29.71a55.74,55.74,0,0,1,19.35,21.65L133.07,75.7l-.18-20.45Z"/>
            <path class="cls-1"
                  d="M121.35,16.6a52.91,52.91,0,0,0-23.57,5.46l17.91,29.56v75.61a52.77,52.77,0,0,0,5.66.34,50.3,50.3,0,0,0,5.66-.34V51.62l17.91-29.56A52.91,52.91,0,0,0,121.35,16.6Z"/>
            <path class="cls-1" d="M177.46,72.05c0-1,0-1.88-.07-2.82L148.82,90.8v29.84a55.49,55.49,0,0,0,28.64-48.59Z"/>
        </g>
    </g>
</svg>