<svg xmlns="http://www.w3.org/2000/svg" viewBox="0 0 503 287.64"><defs><style>.cls-1,.cls-2,.cls-3,.cls-5{isolation:isolate;}.cls-2,.cls-3,.cls-5{font-size:69.09px;}.cls-2,.cls-3,.cls-6{fill:#002eff;}.cls-2,.cls-3{font-family:Montserrat-Medium, Montserrat;font-weight:500;}.cls-3{letter-spacing:-0.01em;}.cls-4{fill:#1a3952;}.cls-5{fill:#fff;font-family:Montserrat-Bold, Montserrat;font-weight:700;}</style></defs><g id="Layer_2" data-name="Layer 2"><g id="Layer_1-2" data-name="Layer 1"><g class="cls-1"><text class="cls-2" transform="translate(313.75 100.82)">B</text><text class="cls-3" transform="translate(366.05 100.82)">O</text><text class="cls-2" transform="translate(423.39 100.82)">T</text></g><rect class="cls-4" x="270" y="125.59" width="233" height="76"/><g class="cls-1"><text class="cls-5" transform="translate(292.58 188.3)">SAFE</text></g><rect class="cls-6" x="107" y="192.59" width="29" height="69"/><path class="cls-4" d="M110,55.32,91.78,25.61A55.74,55.74,0,0,0,72.43,47.26L109,75.77l1-20.45Z"/><path class="cls-4" d="M70,52.83,110,83v43.29a54.16,54.16,0,0,1-10-3.26V87.86L67.26,63.22,10,20.14V90.52l50.59,38.07h0L84.75,146.8l25.25,19V287.64L0,204.76V125.9l10,7.54v66.3l90,67.92V171L84.88,159.59h0L70.14,148.46l-7-5.28L48.41,132.06,0,95.51V0L70,52.83Z"/><path class="cls-4" d="M143,171v96.69l90-67.93V133.43l10-7.53v78.86L133,287.64V165.82l25.25-19,24.12-18.21h0L233,90.52V20.14l-56.21,42.3L143,87.86v35.68a54,54,0,0,1-10,3V83l40.92-30.87L243,0V95.51l-48.41,36.54-14.74,11.13-7,5.28-14.74,11.12h0L143,171Z"/><path class="cls-6" d="M187.73,144.57l11.67-8.8c26.23,26-21.27,61.7-39,29.42l11.67-8.81a10.43,10.43,0,0,0,10,7.42c10.2.36,14.27-14.13,5.65-19.23Z"/><path class="cls-6" d="M55,144.57l-11.66-8.8c-26.25,26,21.29,61.69,39,29.42l-11.66-8.8c-6.25,17.83-31.1-.91-15.66-11.81Z"/><path class="cls-6" d="M66.53,72.59A55.53,55.53,0,0,0,94,120.52V91.34L66.56,70.63c0,.65,0,1.3,0,2Z"/><path class="cls-4" d="M134,55.32l17.21-29.71a55.74,55.74,0,0,1,19.35,21.65L133,75.77l1-20.45Z"/><path class="cls-6" d="M121.5,16.67a50.2,50.2,0,0,0-22.9,5.46L116,51.69V127.3a49.82,49.82,0,0,0,5.5.34,47.49,47.49,0,0,0,5.5-.34V51.69l17.4-29.56A50.2,50.2,0,0,0,121.5,16.67Z"/><path class="cls-6" d="M177.64,72.12c0-1,0-1.88-.07-2.82L149,90.87v29.84a55.49,55.49,0,0,0,28.64-48.59Z"/></g></g></svg>